<svg xmlns="http://www.w3.org/2000/svg" version="1.1" xmlns:xlink="http://www.w3.org/1999/xlink" xmlns:svgjs="http://svgjs.dev/svgjs" width="1000" height="176" viewBox="0 0 1000 176"><g transform="matrix(1,0,0,1,-0.6060606060606233,0.16742135031685734)"><svg viewBox="0 0 396 70" data-background-color="#9918b3" preserveAspectRatio="xMidYMid meet" height="176" width="1000" xmlns="http://www.w3.org/2000/svg" xmlns:xlink="http://www.w3.org/1999/xlink"><g id="tight-bounds" transform="matrix(1,0,0,1,0.2400000000000091,-0.06658803705784067)"><svg viewBox="0 0 395.52 70.13317607411565" height="70.13317607411565" width="395.52"><g><svg viewBox="0 0 523.8578190467679 92.88989851590105" height="70.13317607411565" width="395.52"><g><rect width="8.335230756755449" height="92.88989851590105" x="98.18261248698765" y="0" fill="#ffffff" opacity="1" stroke-width="0" stroke="transparent" fill-opacity="1" class="rect-r$-0" data-fill-palette-color="primary" rx="1%" id="r$-0" data-palette-color="#ffffff"></rect></g><g transform="matrix(1,0,0,1,128.33781904676783,0.23106939929328263)"><svg viewBox="0 0 395.52 92.42775971731449" height="92.42775971731449" width="395.52"><g id="textblocktransform"><svg viewBox="0 0 395.52 92.42775971731449" height="92.42775971731449" width="395.52" id="textblock"><g><svg viewBox="0 0 395.52 92.42775971731449" height="92.42775971731449" width="395.52"><g transform="matrix(1,0,0,1,0,0)"><svg width="395.52" viewBox="-0.15 -38.1 212.23000000000002 49.6" height="92.42775971731449" data-palette-color="#ffffff"><path d="M32.45-29.35L22.35-0.1 22.4-0.05Q18.85 0.55 14.3 0.8L14.3 0.8 3.45-29.9-0.15-30.45-0.1-33.1 16.45-33.1 16.75-31.5Q14.95-30.25 12.75-29.3L12.75-29.3 17.9-13 18.55-6.15 18.95-6.15 26.75-29.75 22.35-30.45 22.4-33.1 36-33.1 36.3-31.5Q34.8-30.4 32.45-29.35L32.45-29.35ZM55.85-14.35L52.95-11.45 40.35-11.55Q40.7-8.3 42.67-6.55 44.65-4.8 47.65-4.8L47.65-4.8Q50.3-4.8 54-6.7L54-6.7 55.25-3.85 47.4 0.6 45.1 0.75Q39.55 0.75 35.87-2.75 32.2-6.25 32.2-11.7L32.2-11.7Q32.2-17.25 35.92-21.13 39.65-25 44.95-25L44.95-25Q49.8-25 52.85-22.08 55.9-19.15 55.85-14.35L55.85-14.35ZM43.6-20.85L43.6-20.85Q41.2-19.35 40.55-15.35L40.55-15.35 48.05-15.8Q47.75-17.85 46.52-19.33 45.3-20.8 43.6-20.85ZM70-16.95L69.25-16.4 69.25-4.55Q72.59-3.75 74.7-2.45L74.7-2.45 74.59 0 57 0 56.9-1.75Q58.45-2.65 60.6-3.4L60.6-3.4 60.6-19.95 56.9-20.65 56.65-23.05Q61.1-24.75 66.55-24.9L66.55-24.9 69.25-21.15 69.25-20.25 73.2-24.7Q73.95-24.95 75.09-24.95L75.09-24.95Q77.09-24.95 78.77-23.95 80.45-22.95 81.09-21.15L81.09-21.15 75.34-13.9Q72-16.7 70-16.95L70-16.95ZM89.99-27.55L89.99-27.55Q86.54-29.1 84.04-32.1L84.04-32.1Q86.04-35.95 88.99-38.1L88.99-38.1Q92.34-36.35 94.64-33L94.64-33Q92.99-29.7 89.99-27.55ZM93.84-22.5L93.84-4.2Q96.04-3.45 97.44-2.45L97.44-2.45 97.34 0 81.49 0 81.39-1.75Q83.14-2.75 85.19-3.45L85.19-3.45 85.19-19.95 81.49-20.65 81.24-23.05Q85.69-24.75 91.14-24.9L91.14-24.9 93.84-22.5ZM114.04-18L110.94-18 110.94-4.4Q113.44-3.7 115.49-2.45L115.49-2.45 115.39 0 99.04 0 98.94-1.75Q100.34-2.6 102.24-3.25L102.24-3.25 102.24-18.05 98.54-18 98.44-20.75 102.24-22.95 102.24-26.65Q102.24-31.3 105.19-34.43 108.14-37.55 112.44-37.55L112.44-37.55Q116.34-37.55 119.89-35.1L119.89-35.1 115.39-27.55Q112.19-30.7 107.84-32.05L107.84-32.05 110.89-23.65 116.49-23.65 116.59-21.2 114.04-18ZM145.84-23.95L145.99-21.5 143.54-20.2 140.99-11.4 139.19-5.9Q137.09 0.05 133.74 4.15 130.39 8.25 124.39 11.5L124.39 11.5 119.89 3.7Q126.49 1.7 131.09-0.8L131.09-0.8 126.19-2.2 119.99-19.1 116.19-21.2 116.24-23.95 127.49-23.95 130.99-11.8 131.39-7.8 132.19-7.8Q134.59-17.3 135.59-23.95L135.59-23.95 145.84-23.95ZM168.59-10.8L173.54-10.4Q173.64-5.5 172.94 0L172.94 0 145.39 0 145.09-1.6Q146.99-2.9 149.34-3.95L149.34-3.95 149.34-29.9 145.59-30.45 145.64-33.1 173.29-33.1 173.34-31.95Q173.34-27.35 172.39-23L172.39-23 167.39-23 166.49-28.1 158.39-28.65 158.39-18.55 168.84-19.4 168.84-14 158.39-14.45 158.39-4.65 166.79-5.3 168.59-10.8ZM194.63-33.5L194.63-33.5Q200.13-33.5 204.08-31.1 208.03-28.7 210.06-24.88 212.08-21.05 212.08-16.85L212.08-16.85Q212.08-9.5 207.38-4.83 202.68-0.15 194.98 0L194.98 0 177.53 0 177.23-1.6Q179.13-2.9 181.48-3.95L181.48-3.95 181.48-29.95 177.93-30.45 177.98-33.1Q185.53-33.5 194.63-33.5ZM193.88-4.6L193.88-4.6Q197.83-4.6 200.23-7.93 202.63-11.25 202.63-16.4L202.63-16.4Q202.63-20.35 201.06-23.9 199.48-27.45 196.83-29.15L196.83-29.15 190.53-28.4 190.53-5.1Q192.23-4.6 193.88-4.6Z" opacity="1" transform="matrix(1,0,0,1,0,0)" fill="#ffffff" class="wordmark-text-0" data-fill-palette-color="primary" id="text-0"></path></svg></g></svg></g></svg></g></svg></g><g transform="matrix(1,0,0,1,0,0.23106939929328263)"><svg viewBox="0 0 76.36263668396292 92.42775971731449" height="92.42775971731449" width="76.36263668396292"><g><svg xmlns="http://www.w3.org/2000/svg" xmlns:xlink="http://www.w3.org/1999/xlink" version="1.1" x="0" y="0" viewBox="99.09999999999968 12.262383447980513 825.7333333333333 999.4505878545542" style="enable-background:new 0 0 1024 1024;" xml:space="preserve" height="92.42775971731449" width="76.36263668396292" class="icon-icon-0" data-fill-palette-color="accent" id="icon-0"><g fill="#ffffff" data-fill-palette-color="accent"><g fill="#ffffff" data-fill-palette-color="accent"><path d="M681.9 805.1c-22.6 12.8-45.2 25.7-67.8 38.5-35.7 20.3-71.3 40.5-107 60.8-8.3 4.7-16.5 9.4-24.8 14.1 16.8 0 33.6 0 50.5 0-25-14.6-50-29.1-75.1-43.7-35.5-20.7-71-41.3-106.5-62-16.6-9.7-32.9-19.6-48.2-31.4 3.4 2.6 6.7 5.2 10.1 7.8-22.1-17.2-42-37.1-59.2-59.2 2.6 3.4 5.2 6.7 7.8 10.1-17.6-22.8-32.1-47.8-43.4-74.3 1.7 4 3.4 8 5 11.9-11.2-26.8-18.9-54.8-22.9-83.6 0.6 4.4 1.2 8.9 1.8 13.3-3-22.2-3-44.4-3-66.7 0-27.3 0-54.6 0-81.9 0-36.2 0-72.4 0-108.5 0-32.4 0-64.8 0-97.1 0-16 0.3-32 0-47.9 0-0.2 0-0.5 0-0.7-16.7 16.7-33.3 33.3-50 50 65.4 0 131.9-11.2 193.4-33.6 32.8-12 65-26.5 95.2-44 25.8-14.9 49.7-32.3 73.1-50.7 12.1-9.5 24.2-19 36.3-28.5-23.6 0-47.1 0-70.7 0 32.4 25.4 64.2 51.7 99.3 73.2 30 18.3 61.7 33.1 94.4 45.9 28.8 11.3 58.6 20 89 26 37.9 7.5 76.7 11.8 115.3 11.8-16.7-16.7-33.3-33.3-50-50 0 13 0 26.1 0 39.1 0 30.8 0 61.6 0 92.3 0 36.1 0 72.2 0 108.3 0 29 0 57.9 0 86.9 0 18 0.4 36-0.9 53.9-0.5 6.7-1.2 13.3-2.1 20 0.6-4.4 1.2-8.9 1.8-13.3-4 28.7-11.6 56.7-22.7 83.4 1.7-4 3.4-8 5-11.9-11.2 26.4-25.7 51.3-43.1 74.1 2.6-3.4 5.2-6.7 7.8-10.1-17.4 22.5-37.6 42.7-60.1 60.1 3.4-2.6 6.7-5.2 10.1-7.8C708.2 788.9 695.3 797.4 681.9 805.1c-10.8 6.2-19.7 17.9-23 29.9-3.3 12-1.8 27.9 5 38.5 6.9 10.7 17.1 20.1 29.9 23 13.2 3 26.6 1.8 38.5-5 35.6-20.3 68.8-46.8 95.8-77.7 14.6-16.7 28.2-34.6 39.9-53.5 11.7-18.8 20.9-38.7 29.4-59.2 20.3-48.9 27.3-101.3 27.3-154 0-37.1 0-74.3 0-111.4 0-48.6 0-97.3 0-145.9 0-28 0.3-55.9 0-83.9 0-0.4 0-0.9 0-1.3 0-27-22.9-50-50-50-23.6 0-47.2-1.6-70.6-4.8 4.4 0.6 8.9 1.2 13.3 1.8-45.9-6.3-90.8-18.6-133.6-36.6 4 1.7 8 3.4 11.9 5-41.8-17.7-81.2-40.8-117.2-68.5 3.4 2.6 6.7 5.2 10.1 7.8-13.8-10.7-27.5-21.6-41.3-32.4-4.5-4.9-9.9-8.3-16.1-10.3-6-3.1-12.4-4.6-19.3-4.3-4.4 0.6-8.9 1.2-13.3 1.8-8.5 2.4-15.8 6.7-22.1 12.9-13.8 10.8-27.5 21.7-41.3 32.4 3.4-2.6 6.7-5.2 10.1-7.8-36 27.7-75.4 50.8-117.2 68.5 4-1.7 8-3.4 11.9-5-42.7 18-87.7 30.2-133.6 36.6 4.4-0.6 8.9-1.2 13.3-1.8-23.4 3.1-47 4.8-70.6 4.8-27 0-50 22.9-50 50 0 20.8 0 41.6 0 62.5 0 44.4 0 88.7 0 133.1 0 41.3 0 82.6 0 123.8 0 11.2 0 22.5 0 33.7 0 22.3 2 44.1 5.2 66.2 11.1 76.5 49.1 149.3 102.7 204.7 24 24.8 52 46.4 81.8 63.8 9.2 5.3 18.3 10.7 27.5 16 38.1 22.2 76.2 44.4 114.4 66.6 14.3 8.4 28.7 16.7 43 25.1 2.7 1.6 5.5 3.2 8.2 4.8 16.2 9.1 34.9 8.8 51 0 0.9-0.5 1.8-1 2.7-1.6 30.8-17.5 61.6-35 92.5-52.5 32.8-18.6 65.6-37.3 98.4-55.9 1.9-1.1 3.8-2.2 5.7-3.3 10.8-6.2 19.7-17.9 23-29.9 3.3-12 1.8-27.9-5-38.5-6.9-10.7-17.1-20.1-29.9-23C707.2 797 693.9 798.3 681.9 805.1z" fill="#ffffff" data-fill-palette-color="accent"></path></g></g><g fill="#ffffff" data-fill-palette-color="accent"><g fill="#ffffff" data-fill-palette-color="accent"><path d="M282.6 548.7c14.5 14.5 28.9 28.9 43.4 43.4 23.1 23.1 46.1 46.1 69.2 69.2 5.3 5.3 10.6 10.6 15.9 15.9 19.1 19.1 51.6 19.1 70.7 0 8.6-8.6 17.2-17.2 25.8-25.8 20.6-20.6 41.3-41.3 61.9-61.9 25-25 50-50 75-75 21.6-21.6 43.2-43.2 64.8-64.8 10.5-10.5 21.2-20.9 31.6-31.6 0.2-0.2 0.3-0.3 0.5-0.5 9.1-9.1 14.6-22.5 14.6-35.4 0-12.3-5.4-26.9-14.6-35.4-9.5-8.7-22-15.2-35.4-14.6-13.3 0.6-25.8 5.1-35.4 14.6-8.6 8.6-17.2 17.2-25.8 25.8-20.6 20.6-41.3 41.3-61.9 61.9-25 25-50 50-75 75-21.6 21.6-43.2 43.2-64.8 64.8-10.5 10.5-21.3 20.9-31.6 31.6-0.2 0.2-0.3 0.3-0.5 0.5 23.6 0 47.1 0 70.7 0-14.5-14.5-28.9-28.9-43.4-43.4-23.1-23.1-46.1-46.1-69.2-69.2-5.3-5.3-10.6-10.6-15.9-15.9-9.1-9.1-22.5-14.6-35.4-14.6-12.3 0-26.9 5.4-35.4 14.6-8.7 9.5-15.2 22-14.6 35.4C268.5 526.6 273 539.1 282.6 548.7L282.6 548.7z" fill="#ffffff" data-fill-palette-color="accent"></path></g></g></svg></g></svg></g></svg></g><defs></defs></svg><rect width="395.52" height="70.13317607411565" fill="none" stroke="none" visibility="hidden"></rect></g></svg></g></svg>